<svg xmlns="http://www.w3.org/2000/svg" width="160" height="128" viewBox="0 0 160 128" role="img" aria-hidden="true"><defs><linearGradient id="fur" x2="0" y2="1"><stop stop-color="#a7b2c9"/><stop offset=".55" stop-color="#5c6689"/><stop offset="1" stop-color="#323652"/></linearGradient></defs><ellipse cx="80" cy="120" rx="53" ry="7" fill="#142619" opacity=".26"/><path d="M124 78Q153 41 147 24Q154 79 132 100" fill="#606481" stroke="#313449" stroke-width="6"/>
<path d="M39 78Q52 56 87 58Q124 57 135 85Q137 107 110 107H48Q29 103 39 78Z" fill="url(#fur)" stroke="#35364c" stroke-width="5"/>
<path d="M47 91L41 120H58L65 96M109 95L116 121H131L119 85" stroke="#30364d" stroke-width="13" stroke-linejoin="round"/>
<path d="M35 62L22 15L57 34L76 23L99 33L117 20L112 69Q106 94 75 103Q48 100 35 62Z" fill="url(#fur)" stroke="#30354b" stroke-width="5"/>
<path d="M38 52L33 27L54 40M98 41L108 30L104 52" fill="#d8c2bc"/>
<path d="M50 67Q60 60 67 66M82 66Q93 60 102 66" stroke="#1d2437" stroke-width="6" stroke-linecap="round"/>
<ellipse cx="58" cy="69" rx="4" ry="5" fill="#e0cd6b"/><ellipse cx="92" cy="69" rx="4" ry="5" fill="#e0cd6b"/>
<path d="M61 77L75 91L89 78Q78 70 61 77Z" fill="#e4ddd1" stroke="#55526a" stroke-width="2"/><path d="M69 80L76 85L83 80" fill="#262535"/>
<path d="M68 93L73 101L77 93L81 101L86 92" fill="#fff0d1" stroke="#6f6978" stroke-width="1"/></svg>